<svg width="61" height="60" viewBox="0 0 61 60" fill="none" xmlns="http://www.w3.org/2000/svg">
<path d="M30.5533 60.0003C26.5122 60.0003 22.5905 59.2099 18.897 57.6511L20.2661 54.407C23.5239 55.782 26.985 56.4791 30.5533 56.4791C37.626 56.4791 44.2754 53.7249 49.2767 48.7237C54.2779 43.7224 57.0323 37.073 57.0323 30.0003C57.0323 24.1732 55.1766 18.6462 51.6659 14.0167L54.4715 11.8892C58.4502 17.1359 60.5533 23.3986 60.5533 30.0003C60.5533 38.0135 57.4327 45.5472 51.7665 51.2135C46.1002 56.8797 38.5665 60.0003 30.5533 60.0003V60.0003Z" fill="#D2E5FC"/>
<path d="M6.86365 48.4088C2.73537 43.1033 0.553223 36.7377 0.553223 30C0.553223 21.9867 3.67381 14.4531 9.33994 8.78672C15.0063 3.12059 22.5399 0 30.5532 0C34.7747 0 38.8571 0.859922 42.6872 2.55574L41.2617 5.77535C37.8833 4.27945 34.2805 3.52113 30.5532 3.52113C23.4805 3.52113 16.831 6.27539 11.8298 11.2766C6.82861 16.2778 4.07436 22.9273 4.07436 30C4.07436 35.947 5.99986 41.565 9.64252 46.2465L6.86365 48.4088Z" fill="#EBF4FE"/>
<path d="M13.2231 29.9998C13.2231 39.5559 20.9975 47.3302 30.5534 47.3302L35.0873 29.9998L30.5534 12.6694C20.9975 12.6694 13.2231 20.4438 13.2231 29.9998V29.9998Z" fill="#414F76"/>
<path d="M30.5532 12.6694V47.3301C40.1092 47.3301 47.8835 39.5558 47.8835 29.9997C47.8835 20.4437 40.1092 12.6694 30.5532 12.6694Z" fill="#343B5C"/>
<path d="M26.5486 25.5984C24.1346 28.9565 23.8555 30.6366 23.8555 31.6083C23.8555 35.3015 26.8602 38.3062 30.5533 38.3062C30.557 38.3062 30.5497 38.306 30.5533 38.306L32.8535 30.4438L30.5533 20.8169C30.5533 20.8169 27.7498 23.9273 26.5486 25.5984V25.5984Z" fill="#74DBF2"/>
<path d="M37.2511 31.6083C37.2511 30.6366 36.9719 28.9565 34.558 25.5984C33.4087 23.9997 30.7778 21.0683 30.5532 20.8169V38.306C34.2415 38.3001 37.2511 35.298 37.2511 31.6083Z" fill="#38BDF0"/>
<path d="M10.7376 54.63C8.22336 54.63 6.17773 52.5845 6.17773 50.0701C6.17773 47.5558 8.22324 45.5103 10.7376 45.5103C13.252 45.5103 15.2975 47.5558 15.2975 50.0701C15.2975 52.5845 13.2519 54.63 10.7376 54.63Z" fill="#01A4DE"/>
<path d="M50.7855 14.5817C48.2712 14.5817 46.2256 12.5362 46.2256 10.0218C46.2256 7.50742 48.2711 5.46191 50.7855 5.46191C53.2998 5.46191 55.3454 7.50742 55.3454 10.0218C55.3454 12.5362 53.2998 14.5817 50.7855 14.5817Z" fill="#01A4DE"/>
</svg>
