<svg width="51" height="60" viewBox="0 0 51 60" fill="none" xmlns="http://www.w3.org/2000/svg">
<path d="M0 25.2765C0 30.4621 1.56574 35.4491 4.52812 39.6983C7.33148 43.7196 11.1839 46.812 15.69 48.6639L25.2766 60L31.9745 25.2765L25.2766 0C11.3391 0 0 11.3391 0 25.2765V25.2765Z" fill="#414F76"/>
<path d="M25.2769 0V60L34.8635 48.664C39.3696 46.8121 43.222 43.7198 46.0255 39.6984C48.9878 35.4492 50.5536 30.4622 50.5536 25.2766C50.5535 11.3391 39.2146 0 25.2769 0V0Z" fill="#343B5C"/>
<path d="M7.94629 25.2766C7.94629 34.8326 15.7206 42.6069 25.2766 42.6069L29.8104 25.2766L25.2766 7.94629C15.7206 7.94629 7.94629 15.7206 7.94629 25.2766V25.2766Z" fill="#EBF4FE"/>
<path d="M25.2769 7.94629V42.6069C34.8328 42.6069 42.6071 34.8326 42.6071 25.2766C42.6071 15.7205 34.8328 7.94629 25.2769 7.94629V7.94629Z" fill="#D2E5FC"/>
<path d="M21.2717 20.8752C18.8578 24.2334 18.5786 25.9135 18.5786 26.8852C18.5786 30.5784 21.5833 33.583 25.2765 33.583C25.2801 33.583 25.2728 33.5828 25.2765 33.5828L27.5766 25.7207L25.2765 16.0938C25.2765 16.0938 22.473 19.204 21.2717 20.8752Z" fill="#74DBF2"/>
<path d="M31.9747 26.8852C31.9747 25.9135 31.6956 24.2334 29.2816 20.8752C28.1324 19.2764 25.5014 16.345 25.2769 16.0938V33.5828C28.9651 33.5768 31.9747 30.5747 31.9747 26.8852V26.8852Z" fill="#38BDF0"/>
</svg>
