<svg width="54" height="60" viewBox="0 0 54 60" fill="none" xmlns="http://www.w3.org/2000/svg">
<path d="M4.61012 7.2029C0.973806 12.2616 0.553223 14.7925 0.553223 16.2563C0.553223 21.8198 5.07946 26.346 10.6429 26.346C10.6483 26.346 10.6537 26.3456 10.6591 26.3455L14.1079 14.5019L10.6689 0C10.6689 0 6.41984 4.68537 4.61012 7.2029V7.2029Z" fill="#74DBF2"/>
<path d="M20.7328 16.2563C20.7328 14.7925 20.3122 12.2615 16.6759 7.2029C14.9446 4.79447 11.0073 0.378631 10.669 0L10.6592 26.3455C16.2153 26.3367 20.7328 21.8144 20.7328 16.2563Z" fill="#38BDF0"/>
<path d="M41.5201 4.91729C39.0376 8.37079 38.7505 10.0986 38.7505 11.098C38.7505 14.896 41.8405 17.986 45.6385 17.986C45.6423 17.986 45.6459 17.9858 45.6495 17.9858L48.0039 9.90032L45.6563 0C45.6563 0 42.7556 3.19862 41.5201 4.91729V4.91729Z" fill="#74DBF2"/>
<path d="M52.5264 11.0979C52.5264 10.0985 52.2393 8.37067 49.7568 4.91717C48.5749 3.27315 45.8871 0.258397 45.6561 0L45.6494 17.9856C49.4424 17.9797 52.5264 14.8923 52.5264 11.0979Z" fill="#38BDF0"/>
<path d="M15.1528 20.8591C9.01816 29.3934 8.30859 33.6632 8.30859 36.1328C8.30859 45.5187 15.9446 53.1547 25.3305 53.1547C25.3396 53.1547 25.3486 53.154 25.3578 53.154L31.176 33.1733L25.3743 8.70752C25.3743 8.70752 18.2059 16.612 15.1528 20.8591V20.8591Z" fill="#98F9FD"/>
<path d="M42.3519 36.1328C42.3519 33.6633 41.6423 29.3934 35.5077 20.8591C32.5869 16.7961 25.9446 9.34619 25.3739 8.70752L25.3574 53.154C34.7306 53.139 42.3519 45.5094 42.3519 36.1328Z" fill="#74DBF2"/>
<path d="M30.8301 48.4773C30.8301 54.8306 35.9988 59.9994 42.3523 59.9994L45.3667 48.4773L42.3523 36.9551C35.999 36.9551 30.8301 42.124 30.8301 48.4773Z" fill="#414F76"/>
<path d="M42.3525 36.9556V59.9999C48.7058 59.9999 53.8747 54.8312 53.8747 48.4778C53.8747 42.1243 48.7058 36.9556 42.3525 36.9556V36.9556Z" fill="#343B5C"/>
<path d="M40.8402 48.7831L38.8829 46.8257L36.397 49.3116L40.8402 53.7548L42.3527 52.2424L43.6807 48.8373L42.3527 47.2706L40.8402 48.7831Z" fill="#EBF4FE"/>
<path d="M46.6568 42.9663L42.3525 47.2706V52.2424L49.1427 45.4522L46.6568 42.9663Z" fill="#D9E9FD"/>
</svg>
