<svg width="61" height="60" viewBox="0 0 61 60" fill="none" xmlns="http://www.w3.org/2000/svg">
<path d="M24.4235 0V5.03531C22.0878 5.63578 19.8648 6.55711 17.7853 7.78664L14.2235 4.22484L5.09984 13.3486L8.66164 16.9104C7.43223 18.9899 6.51078 21.213 5.9102 23.5486H0.875V36.4515H5.91043C6.51078 38.7871 7.43211 41.0101 8.66176 43.0896L5.09996 46.6513L14.2236 55.775L17.7855 52.2134C19.8648 53.4428 22.0879 54.3642 24.4236 54.9647V60H30.875L37.1552 29.692L30.875 0H24.4235Z" fill="#576689"/>
<path d="M60.875 36.4515V23.5486H55.8397C55.2392 21.213 54.3178 18.9899 53.0882 16.9104L56.65 13.3486L47.5264 4.22484L43.9646 7.78664C41.8851 6.55711 39.6621 5.63578 37.3264 5.03531V0H30.875V60H37.3265V54.9647C39.6622 54.3642 41.8852 53.4429 43.9646 52.2134L47.5265 55.775L56.6502 46.6513L53.0884 43.0896C54.3179 41.0101 55.2392 38.7871 55.8397 36.4515H60.875Z" fill="#414F76"/>
<path d="M13.5449 29.9998C13.5449 39.5559 21.3193 47.3302 30.8752 47.3302L35.4091 29.9998L30.8752 12.6694C21.3193 12.6694 13.5449 20.4438 13.5449 29.9998V29.9998Z" fill="#EBF4FE"/>
<path d="M30.875 12.6694V47.3301C40.4309 47.3301 48.2053 39.5558 48.2053 29.9997C48.2053 20.4437 40.4309 12.6694 30.875 12.6694Z" fill="#D2E5FC"/>
<path d="M26.8703 25.5984C24.4564 28.9565 24.1772 30.6366 24.1772 31.6083C24.1772 35.3015 27.1819 38.3062 30.8751 38.3062C30.8787 38.3062 30.8715 38.306 30.8751 38.306L33.1753 30.4438L30.8751 20.8169C30.8751 20.8169 28.0716 23.9273 26.8703 25.5984V25.5984Z" fill="#74DBF2"/>
<path d="M37.5729 31.6083C37.5729 30.6366 37.2937 28.9565 34.8798 25.5984C33.7305 23.9997 31.0995 21.0683 30.875 20.8169V38.306C34.5632 38.3001 37.5729 35.298 37.5729 31.6083Z" fill="#38BDF0"/>
</svg>
