<svg id="Layer_1" data-name="Layer 1" xmlns="http://www.w3.org/2000/svg" xmlns:xlink="http://www.w3.org/1999/xlink" viewBox="0 0 689.82 644.59"><defs><style>.cls-1{fill:#1c993c;}.cls-1,.cls-2,.cls-3,.cls-4,.cls-5{fill-rule:evenodd;}.cls-2{fill:url(#linear-gradient);}.cls-3{fill:url(#linear-gradient-2);}.cls-4{fill:#fff;}.cls-5{fill:url(#linear-gradient-3);}</style><linearGradient id="linear-gradient" x1="102.87" y1="307.87" x2="577.84" y2="307.87" gradientUnits="userSpaceOnUse"><stop offset="0" stop-color="#34bdef"/><stop offset="0.35" stop-color="#1bade6"/><stop offset="0.74" stop-color="#07a1df"/><stop offset="1" stop-color="#009cdc"/></linearGradient><linearGradient id="linear-gradient-2" x1="546.34" y1="283.6" x2="298.57" y2="426.65" gradientUnits="userSpaceOnUse"><stop offset="0" stop-color="#6dc9f3"/><stop offset="0.09" stop-color="#57c0ee"/><stop offset="0.25" stop-color="#38b3e8"/><stop offset="0.42" stop-color="#1fa9e3"/><stop offset="0.59" stop-color="#0ea2df"/><stop offset="0.78" stop-color="#039ddd"/><stop offset="1" stop-color="#009cdc"/></linearGradient><linearGradient id="linear-gradient-3" x1="251.47" y1="162.04" x2="500.88" y2="162.04" gradientUnits="userSpaceOnUse"><stop offset="0" stop-color="#adddf8"/><stop offset="0.12" stop-color="#82cdf1"/><stop offset="0.25" stop-color="#5abeeb"/><stop offset="0.39" stop-color="#39b2e5"/><stop offset="0.53" stop-color="#20a8e1"/><stop offset="0.67" stop-color="#0ea1de"/><stop offset="0.82" stop-color="#039ddd"/><stop offset="1" stop-color="#009cdc"/></linearGradient></defs><path class="cls-1" d="M609.49,380.07c-32.39,138.32-170.78,224.2-309.1,191.82a256,256,0,0,1-127.91-73.3A248,248,0,0,0,286.79,560c134,31.36,268-51.82,299.37-185.8s-51.81-268-185.79-299.37A248.13,248.13,0,0,0,281.78,76,256.07,256.07,0,0,1,417.67,71C556,103.36,641.87,241.75,609.49,380.07Z"/><path class="cls-2" d="M570.1,375.79c25.18-118.24-46.63-236.66-164.75-268C283.49,75.45,158.49,148,126.15,269.87c-29.26,110.25,27.38,223.07,128.67,267.5C143.14,494.4,79.48,373.26,110.88,255,144.51,128.23,274.51,52.74,401.26,86.37,527.67,119.92,603.08,249.37,570.1,375.79Z"/><path class="cls-1" d="M375.16,492.58c-11.27,7.34-26.28,11-37.56,7.34a69,69,0,0,1-12.9-5.78,95.35,95.35,0,0,1-7.05-8.81c-25.43-36-37.81-80.76-50.6-122.2,4.34,31.14.72,61.64,14.14,91.12-40.87-59.48-53.08-127.36-65.43-196.5-7.64,96.38,17.61,191.46,92.07,258.42-21.5-9.59-46.1-29.67-70.36-31,24,22.05,54,35.76,82.92,50.35C186.76,513.71,115.3,375.11,159,253.09c8.76-24.48,29.58-59.13,53.42-81.53,7.25-6.82,14.76-12.55,22.31-16.45A8.31,8.31,0,0,1,240,154c-15.57,29.23-4,54.13,0,62.05.16.32.34.61.52.92,20.77,54.7,106,80.29,145.93,124.9C424,386,416.47,452.15,375.16,492.58Z"/><path class="cls-3" d="M365.31,542.25s85.79-44.51,79.13-132.47-90.64-107.3-108-141.95,25.94-91.49,117.26-65.41,100,102.73,96.66,148.71S503.43,546.77,365.31,542.25Z"/><path class="cls-4" d="M500.21,269.15c-9-31.41-56.6-43.2-85-41.19-6.44.45-32.94,8.26-42.09,12.48a2.68,2.68,0,0,1-3.74-3c1.76-9.9,19.28-19.14,25.7-21.35,16.5-5.65,34.85-4.53,51.35.44C468.69,223.25,501,242.05,500.21,269.15Z"/><path class="cls-5" d="M500.88,198.24s-51.52-31.37-115.53-16.05-80.41,35.37-117.3,18.06-5.37-66.75,28.06-76S410.78,98.3,500.88,198.24Z"/><path class="cls-4" d="M343.09,134.59l-2.13.31c-1.37.19-3.36.43-5.81.95a106.89,106.89,0,0,0-18.88,5.34,84.29,84.29,0,0,0-21.35,11.67c-6.39,5-11.58,11-13.61,16.51-1.12,2.83-1.92,7-.94,10s2.92,4.71,5.26,6.34,4.84,2.87,5.64,4.16.07,2.7-4.17,3.68a19.47,19.47,0,0,1-9.45-.32,16.8,16.8,0,0,1-8.84-6,20.41,20.41,0,0,1-4-11.6,28.34,28.34,0,0,1,2.34-12.13A44.06,44.06,0,0,1,281.29,146a63.27,63.27,0,0,1,18-9.48,79.52,79.52,0,0,1,31.28-3.89,75.84,75.84,0,0,1,9.21,1.25Z"/></svg>