<svg width="150" height="150" viewBox="0 0 150 150" fill="none" xmlns="http://www.w3.org/2000/svg">
<path d="M46.9593 74.9997C46.9593 92.7313 44.2584 107.922 59.8666 113.999C64.5621 115.827 69.6662 116.831 75.0002 116.831L80.2447 74.9997L74.9999 33.1685C62.2148 33.1685 50.7506 38.9341 43.0713 48.0015C36.8964 55.2929 46.9593 64.7191 46.9593 74.9997V74.9997Z" fill="#98F9FD"/>
<path d="M75 48.0039V116.831C87.8607 116.831 99.3844 110.998 107.064 101.838C113.158 94.5687 105.062 85.2054 105.062 75.0001C105.062 51.9344 98.066 48.0039 75 48.0039V48.0039Z" fill="#74DBF2"/>
<path d="M21.9668 21.9668C7.80147 36.1327 0 54.9668 0 75C0 95.0332 7.80147 113.867 21.9668 128.033C36.1327 142.199 54.9668 150 75 150L80.5863 145.837L75 141.211C57.3144 141.211 40.6875 134.324 28.1818 121.818C15.6762 109.312 8.78906 92.6856 8.78906 75C8.78906 57.3144 15.6762 40.6875 28.1818 28.1818C40.6875 15.6762 57.3144 8.78906 75 8.78906L81.4058 3.83818L75 0C54.9668 0 36.1327 7.80147 21.9668 21.9668V21.9668Z" fill="#576689"/>
<path d="M113.481 139.388L108.966 131.847C98.7372 137.973 86.9921 141.211 75 141.211V150C88.582 150 101.889 146.33 113.481 139.388Z" fill="#D2E5FC"/>
<path d="M128.033 21.9668C113.867 7.80147 95.0332 0 75 0V8.78906C92.6856 8.78906 109.312 15.6762 121.818 28.1818C134.324 40.6875 141.211 57.3144 141.211 75C141.211 89.9323 136.36 104.026 127.183 115.758L134.106 121.173C144.504 107.88 150 91.914 150 75C150 54.9668 142.199 36.1327 128.033 21.9668V21.9668Z" fill="#D2E5FC"/>
<path d="M89.8072 65.2403C90.9949 65.2403 91.9611 66.2065 91.9611 67.3942C91.9611 67.8041 91.8451 68.2037 91.6254 68.5491L86.0982 77.2485C82.911 82.265 82.7224 88.3664 85.5932 93.5704C88.4546 98.7571 93.6914 101.848 99.6105 101.848H99.6694L107.062 101.836C113.156 94.5668 116.832 85.205 116.832 74.9997C116.832 51.934 98.066 33.1685 75 33.1685V50.4331C75 58.5978 81.6425 65.2403 89.8072 65.2403Z" fill="#68BD98"/>
<path d="M66.6343 81.8976C65.2919 75.4725 60.9346 70.1979 55.152 67.5614C55.3403 66.5404 55.4361 65.5004 55.4361 64.4539C55.4361 56.6627 50.2061 50.0744 43.0737 48.0034C36.8988 55.2945 33.1685 64.719 33.1685 74.9996C33.1685 92.7312 44.2591 107.92 59.867 113.997L66.276 91.6517C67.183 88.4899 67.3066 85.117 66.6343 81.8976V81.8976Z" fill="#A1DE8C"/>
<path d="M115.171 119.603C109.396 127.636 108.729 131.655 108.729 133.979C108.729 142.814 115.916 150.001 124.75 150.001C124.759 150.001 124.767 150 124.776 150L130.252 131.194L124.791 108.166C124.791 108.166 118.044 115.606 115.171 119.603V119.603Z" fill="#74DBF2"/>
<path d="M140.772 133.979C140.772 131.654 140.104 127.635 134.33 119.603C131.58 115.778 125.328 108.766 124.791 108.165L124.776 150C133.598 149.986 140.772 142.804 140.772 133.979V133.979Z" fill="#38BDF0"/>
</svg>
