<svg width="1440" height="140" viewBox="0 0 1440 140" fill="none" xmlns="http://www.w3.org/2000/svg">
<path d="M0 42L18.5 46.6812C36.9 51.1875 74 60.8125 111 58.3188C147.7 56 185 42 222 46.6812C258.5 51.1875 295 74.8125 332 88.6812C369.2 102.812 406 107.187 443 102.681C480 98 517 84 554 84C590.8 84 628 98 665 100.319C701.5 102.813 738 93.1875 775 84C812.3 74.8125 849 65.1875 886 60.6812C923.1 56 960 56 997 60.6812C1033.8 65.1875 1071 74.8125 1108 77C1144.6 79.1875 1182 74.8125 1218 63C1255.4 51.1875 1292 32.8125 1329 21C1366.2 9.1875 1403 4.8125 1422 2.31875L1440 0V140H1421.5C1403.1 140 1366 140 1329 140C1292.3 140 1255 140 1218 140C1181.5 140 1145 140 1108 140C1070.8 140 1034 140 997 140C960 140 923 140 886 140C849.2 140 812 140 775 140C738.5 140 702 140 665 140C627.7 140 591 140 554 140C516.9 140 480 140 443 140C406.2 140 369 140 332 140C295.4 140 258 140 222 140C184.6 140 148 140 111 140C73.8 140 37 140 18 140H0V42Z" fill="#0099FF"/>
</svg>
